<svg xmlns="http://www.w3.org/2000/svg" fill="none" viewBox="-0.5 -0.5 24 24" id="Java--Streamline-Svg-Logos.svg" height="24" width="24"><desc>Java Streamline Icon: https://streamlinehq.com</desc><path fill="#5382A1" d="M8.544523958333333 17.656189583333337s-0.8606072916666667 0.5004895833333334 0.6124708333333334 0.6698510416666668c1.7846083333333336 0.20357395833333333 2.6967020833333337 0.17439270833333334 4.6633458333333335 -0.19782395833333333 0 0 0.5170447916666667 0.3242041666666667 1.2391489583333335 0.6049958333333333 -4.408692708333334 1.8894979166666666 -9.977759375 -0.10944166666666667 -6.514965625 -1.0770229166666667Z" stroke-width="1"></path><path fill="#5382A1" d="M8.005820833333333 15.190565625s-0.9652572916666667 0.714509375 0.5089229166666667 0.8669802083333333c1.9063645833333334 0.19667395833333334 3.4118822916666667 0.21275000000000002 6.0169677083333335 -0.288865625 0 0 0.36033333333333334 0.3652927083333333 0.9269 0.5650572916666666 -5.330369791666667 1.55868125 -11.267460416666667 0.12290625000000001 -7.452790625 -1.143171875Z" stroke-width="1"></path><path fill="#E76F00" d="M12.547386458333333 11.007943749999999c1.0862947916666665 1.2506729166666668 -0.285415625 2.3761395833333334 -0.285415625 2.3761395833333334s2.7582989583333335 -1.4239395833333333 1.4915260416666667 -3.2070145833333332c-1.1831104166666668 -1.6628520833333333 -2.0904125 -2.48903125 2.8213333333333335 -5.337677083333333 0 0 -7.709815625000001 1.9255552083333336 -4.02744375 6.168552083333333Z" stroke-width="1"></path><path fill="#5382A1" d="M18.378221875 19.479969791666665s0.6368604166666667 0.524759375 -0.7014041666666667 0.9307333333333333c-2.5447583333333337 0.7709072916666666 -10.591571875000001 1.0036864583333334 -12.826932291666667 0.030714583333333337 -0.8035625000000001 -0.34957604166666667 0.7033208333333334 -0.8347083333333334 1.1773364583333334 -0.9364833333333333 0.49435625000000005 -0.10721354166666668 0.7768489583333335 -0.08723229166666667 0.7768489583333335 -0.08723229166666667 -0.8936218750000001 -0.6295291666666667 -5.776102604166667 1.23610625 -2.480046875 1.7704010416666667 8.98883125 1.4577208333333334 16.385775 -0.6564104166666667 14.054197916666668 -1.7081333333333333Z" stroke-width="1"></path><path fill="#5382A1" d="M8.958428125000001 12.63576875s-4.093113541666667 0.9722052083333333 -1.4494791666666667 1.3252312499999999c1.11621875 0.14945208333333335 3.341396875 0.11564687500000001 5.414104166666666 -0.05802708333333333 1.6939020833333334 -0.14288750000000003 3.3948000000000005 -0.44670312500000003 3.3948000000000005 -0.44670312500000003s-0.59728125 0.255803125 -1.0294177083333336 0.5508739583333334c-4.156483333333334 1.0931468750000002 -12.186070833333334 0.5846072916666667 -9.874451041666667 -0.5335760416666667 1.9549281250000003 -0.9449885416666667 3.54444375 -0.8377989583333334 3.54444375 -0.8377989583333334Z" stroke-width="1"></path><path fill="#5382A1" d="M16.300890625 16.740022916666668c4.225267708333333 -2.195613541666667 2.27168125 -4.305576041666667 0.9080927083333333 -4.021310416666667 -0.33421875 0.06955104166666667 -0.48323958333333333 0.12983020833333336 -0.48323958333333333 0.12983020833333336s0.12408020833333334 -0.19437395833333335 0.36105208333333333 -0.2784916666666667c2.6976125000000004 -0.948390625 4.772236458333333 2.797159375 -0.8708135416666667 4.2806114583333335 0 0 0.06535833333333334 -0.058386458333333335 0.08490833333333334 -0.11063958333333333Z" stroke-width="1"></path><path fill="#E76F00" d="M13.753448958333335 0.23958333333333334s2.340034375 2.340801041666667 -2.2194041666666666 5.940301041666667c-3.6561854166666667 2.887434375 -0.8337260416666668 4.533755208333334 -0.001509375 6.414747916666667 -2.134184375 -1.9255552083333336 -3.700388541666667 -3.620607291666667 -2.649647916666667 -5.198239583333334C10.425109375 5.080604166666666 14.697598958333334 3.957820833333334 13.753448958333335 0.23958333333333334Z" stroke-width="1"></path><path fill="#5382A1" d="M9.373578125 22.689619791666665c4.055714583333334 0.25961249999999997 10.283755208333334 -0.14406145833333334 10.431242708333333 -2.0631 0 0 -0.2835229166666667 0.7274947916666668 -3.3518427083333333 1.3052500000000002 -3.4616437500000004 0.6514270833333333 -7.731090625000001 0.5753833333333334 -10.263342708333333 0.15788541666666667 0 0 0.5183864583333333 0.429021875 3.1839427083333334 0.5999645833333334Z" stroke-width="1"></path></svg>