<svg xmlns="http://www.w3.org/2000/svg" fill="none" viewBox="-0.5 -0.5 24 24" id="Material-Ui--Streamline-Svg-Logos.svg" height="24" width="24"><desc>Material Ui Streamline Icon: https://streamlinehq.com</desc><path fill="#007FFF" d="M19.221411458333332 15.059058333333335c0.19365520833333336 -0.11121458333333334 0.3133510416666667 -0.31720833333333337 0.31404583333333336 -0.5405239583333333l0.011260416666666667 -3.620319791666667c0.0007187500000000001 -0.22331562500000002 0.12041458333333335 -0.42930937500000005 0.31406979166666665 -0.5405239583333333l1.9624750000000002 -1.1273114583333335c0.19358333333333336 -0.11116666666666668 0.4317291666666667 -0.11075937500000001 0.6249291666666668 0.0010541666666666668S22.760416666666668 9.549552083333333 22.760416666666668 9.772771875v6.58188125c0 0.22398645833333333 -0.11981562500000001 0.4308666666666667 -0.31404583333333336 0.5423927083333333L15.039939583333334 21.151111458333332c-0.19250520833333334 0.11049583333333333 -0.42914166666666664 0.11073541666666667 -0.6218385416666666 0.0006229166666666667L8.605689583333334 17.827323958333334c-0.19492500000000001 -0.111334375 -0.31524375000000004 -0.31855 -0.31531562500000004 -0.5430156250000001V13.965504166666667c0 -0.0037375 0.004384375 -0.006253125000000001 0.008145833333333335 -0.004360416666666667 0.0031145833333333334 0.00186875 0.007498958333333334 0 0.007498958333333334 -0.004384375v-0.0037614583333333332c0 -0.0024916666666666668 0.0012458333333333334 -0.005007291666666667 0.0037614583333333332 -0.006253125000000001l4.787066666666666 -2.7501291666666665c0.004360416666666667 -0.0024916666666666668 0.0024916666666666668 -0.009367708333333334 -0.002515625 -0.009367708333333334 -0.0027552083333333335 0 -0.005007291666666667 -0.0022520833333333334 -0.005007291666666667 -0.005007291666666667l0.009391666666666666 -3.2537333333333334c0.0008864583333333334 -0.22393854166666666 -0.11799479166666667 -0.43129791666666667 -0.311721875 -0.5436385416666667 -0.19372708333333333 -0.11236458333333334 -0.4327354166666667 -0.11260416666666666 -0.626678125 -0.0006229166666666667L8.602551041666667 9.4343125c-0.19324791666666666 0.11128645833333334 -0.43110625 0.11128645833333334 -0.6243541666666667 0l-3.5690250000000003 -2.0550739583333333c-0.19351145833333333 -0.11143020833333334 -0.431753125 -0.1112625 -0.6251208333333333 0.00045520833333333334 -0.19334375 0.11169375000000001 -0.3125125 0.3179989583333333 -0.3126322916666667 0.5413145833333333v5.880596875c0.00014375 0.2230760416666667 -0.11849791666666666 0.42933333333333334 -0.31136250000000004 0.5413864583333333 -0.1928885416666667 0.11202916666666668 -0.4308427083333334 0.11289166666666667 -0.624521875 0.0022520833333333334l-1.980649791666667 -1.13231875C0.359590625 13.101374999999999 0.23920790625000002 12.893560416666668 0.23958333333333334 12.668663541666666l0.017518333333333334 -10.278553854166667c0.00048635416666666673 -0.22300416666666667 0.119643125 -0.42888770833333334 0.31276166666666666 -0.5404017708333334 0.19311854166666667 -0.1115140625 0.43099843750000005 -0.111794375 0.6243805208333334 -0.0007403125L7.978843749999999 5.745807291666667c0.19291250000000001 0.11078333333333333 0.43017187500000004 0.11078333333333333 0.623084375 0L15.384628125 1.8489676041666667c0.19367916666666668 -0.11122177083333333 0.43196875 -0.11075937500000001 0.6251927083333334 0.0012122916666666669 0.19324791666666666 0.11197166666666666 0.312153125 0.3184685416666667 0.31196145833333333 0.5418057291666667V12.673023958333333c0.00009583333333333334 0.22386666666666669 -0.11943229166666668 0.4306989583333334 -0.31342291666666666 0.5423927083333333l-3.552134375 2.0457062500000003c-0.19420625 0.11195729166666667 -0.3136625 0.31926875 -0.313159375 0.5434229166666668 0.0005270833333333334 0.224178125 0.12094166666666668 0.4309145833333333 0.31565104166666663 0.5419854166666667l1.9593843750000002 1.1154281250000002c0.19264895833333334 0.10970520833333333 0.4289979166666667 0.10922604166666668 0.621215625 -0.0012458333333333334l4.182094791666667 -2.4016552083333336Zm0.41102916666666667 -9.222544791666667c0.00016770833333333335 0.2252322916666667 0.12142083333333334 0.432975 0.3174239583333333 0.5439260416666667 0.19600312500000003 0.11095104166666668 0.43652083333333336 0.10798020833333334 0.6297208333333334 -0.007786458333333334l1.8768 -1.126065625c0.18845625 -0.11293958333333333 0.3038635416666667 -0.3164416666666667 0.30403125 -0.5361395833333333v-2.29468125c-0.00040729166666666664 -0.22512687500000003 -0.12173229166666667 -0.4326707291666667 -0.3176875 -0.5434684375000001 -0.19597916666666665 -0.11079770833333333 -0.436353125 -0.10776218750000001 -0.6294572916666666 0.007949375l-1.8768 1.1260680208333333c-0.18845625 0.11293958333333333 -0.3038635416666667 0.3164416666666667 -0.30403125 0.5361395833333333v2.29468125Z" stroke-width="1"></path></svg>