<svg xmlns="http://www.w3.org/2000/svg" fill="none" viewBox="-0.5 -0.5 24 24" id="Mysql--Streamline-Svg-Logos.svg" height="24" width="24"><desc>Mysql Streamline Icon: https://streamlinehq.com</desc><path fill="#00758F" d="m6.9390760416666675 13.962197916666668 0.6844416666666666 2.2207458333333334c0.15374062500000002 0.504203125 0.21787708333333333 0.856175 0.19224166666666667 1.0568020833333334 0.374325 -1.0025364583333334 0.6358541666666667 -2.095084375 0.7846354166666667 -3.277547916666667h0.82296875c-0.353840625 1.9251 -0.820596875 3.324051041666667 -1.3999333333333335 4.196757291666667 -0.45137499999999997 0.6724385416666667 -0.945875 1.0086697916666667 -1.4843625 1.0086697916666667 -0.143534375 0 -0.3205385416666667 -0.04336458333333333 -0.5306052083333334 -0.12949479166666666v-0.4640729166666667c0.10261354166666667 0.015069791666666667 0.223028125 0.023095833333333333 0.3615072916666667 0.023095833333333333 0.251203125 0 0.4536510416666667 -0.06959895833333334 0.6076791666666667 -0.20853333333333332 0.18445520833333334 -0.16931354166666668 0.27676666666666666 -0.359590625 0.27676666666666666 -0.5704718750000001 0 -0.14403749999999998 -0.07199479166666667 -0.4395875 -0.21533750000000002 -0.8866739583333333L6.085416666666666 13.962197916666668h0.853659375ZM1.7009769791666667 12.59724375l1.2536365625 3.8249000000000004h0.0076906249999999995l1.2613343750000001 -3.8249000000000004h1.0304958333333334c0.22566354166666666 1.896853125 0.35889583333333336 3.6324666666666667 0.399840625 5.205570833333334h-0.868825c-0.030570833333333332 -1.4705864583333332 -0.11526354166666668 -2.853413541666667 -0.25371875 -4.148744791666667h-0.007642708333333333l-1.3230270833333333 4.148744791666667h-0.6615854166666667L1.2241702083333335 13.654069791666668h-0.007745729166666666c-0.09757270833333334 1.2440125000000002 -0.15895875 2.6268395833333336 -0.18455822916666667 4.148744791666667H0.23958333333333334c0.051198958333333336 -1.8508770833333332 0.17933052083333334 -3.5859395833333334 0.3843946875 -5.205570833333334h1.0769989583333335Z" stroke-width="1"></path><path fill="#F29111" d="M15.744650000000002 12.519978125000002c1.348446875 0 2.0227541666666666 0.8615416666666668 2.0227541666666666 2.5837145833333337 0 0.9358604166666668 -0.20278333333333334 1.6427510416666666 -0.6079666666666667 2.120336458333333 -0.07304895833333333 0.08725625000000001 -0.15371666666666667 0.16262916666666666 -0.238696875 0.23249166666666668l0.954284375 0.4718354166666667 -0.000934375 -0.00004791666666666667 -0.33881875 0.5850864583333334 -1.24271875 -0.7250989583333334c-0.20601770833333333 0.060997916666666666 -0.43263958333333336 0.091496875 -0.6796739583333333 0.091496875 -0.6620885416666668 0 -1.1566604166666667 -0.192984375 -1.4836916666666669 -0.5784020833333334 -0.35891979166666665 -0.4264104166666667 -0.5382479166666667 -1.097675 -0.5382479166666667 -2.012691666666667 0 -0.9305656250000001 0.20237604166666667 -1.634772916666667 0.6076791666666667 -2.1129572916666666 0.36910208333333333 -0.43738333333333335 0.8845895833333334 -0.6557635416666666 1.5460312500000002 -0.6557635416666666Zm-4.129434375000001 0.0076187500000000005c0.48196979166666665 0 0.9202395833333334 0.12896770833333335 1.3149531250000002 0.38596875l-0.20050729166666667 0.4467510416666667c-0.337740625 -0.1435822916666667 -0.670809375 -0.21564895833333333 -0.9991822916666666 -0.21564895833333333 -0.26644062500000004 0 -0.4717875 0.06413645833333334 -0.6149145833333334 0.1931760416666667 -0.14394166666666666 0.12791354166666669 -0.23294687500000003 0.29255520833333337 -0.23294687500000003 0.49318229166666666 0 0.3082958333333333 0.21967395833333336 0.5757187500000001 0.6252406250000001 0.8016458333333334 0.10910625000000002 0.05932083333333333 0.2512270833333333 0.13843125 0.397253125 0.22041666666666668l0.030259375 0.017010416666666667c0.005055208333333333 0.0028270833333333334 0.010110416666666667 0.005678125 0.01514166666666667 0.008505208333333333l0.03033125 0.017058333333333335c0.005055208333333333 0.002851041666666667 0.010110416666666667 0.005702083333333334 0.01514166666666667 0.008529166666666668l0.030259375 0.017058333333333335c0.30705000000000005 0.17309895833333336 0.5959395833333334 0.338315625 0.5959395833333334 0.338315625 0.4055666666666667 0.2878833333333333 0.6076791666666667 0.5947895833333334 0.6076791666666667 1.100334375 0 0.44148020833333335 -0.16176666666666667 0.8038979166666667 -0.4842458333333333 1.08746875 -0.32274270833333335 0.28230104166666664 -0.7563166666666667 0.423846875 -1.299284375 0.423846875 -0.5078208333333334 0 -0.9999729166666667 -0.16289270833333333 -1.4767197916666668 -0.4860427083333334l0.223028125 -0.4471583333333334c0.4102625 0.20561041666666666 0.7815208333333333 0.3082958333333333 1.114853125 0.3082958333333333 0.3126802083333333 0 0.5574145833333334 -0.06976666666666667 0.7344666666666667 -0.20762291666666668 0.17664479166666666 -0.13883854166666668 0.282540625 -0.33249375 0.282540625 -0.5781145833333333 0 -0.30908645833333337 -0.214978125 -0.573275 -0.609428125 -0.7949135416666666 -0.102421875 -0.056373958333333335 -0.23361770833333334 -0.12995 -0.3692697916666667 -0.20664062500000002l-0.030211458333333333 -0.01708229166666667c-0.0554875 -0.03138541666666667 -0.11143020833333334 -0.06313020833333334 -0.16615104166666667 -0.09425208333333335l-0.029732291666666667 -0.016890625c-0.266296875 -0.15148854166666667 -0.49656041666666667 -0.283834375 -0.49656041666666667 -0.283834375 -0.3943302083333333 -0.28841041666666667 -0.5920104166666668 -0.5978562500000001 -0.5920104166666668 -1.1077375 0 -0.42169062500000004 0.147415625 -0.7625458333333334 0.44188750000000004 -1.0218708333333335 0.29514270833333334 -0.259828125 0.6759125 -0.3897541666666667 1.1421895833333335 -0.3897541666666667Zm7.736936458333334 0.06962291666666667v4.565236458333334h1.637959375v0.640334375h-2.468666666666667V12.597219791666667h0.8307072916666667ZM21.9003125 17.164444791666668v0.10819583333333334h-0.18014270833333335v0.5296229166666666h-0.13764062500000002v-0.5296229166666666h-0.18711458333333333v-0.10819583333333334H21.9003125Zm0.33251770833333333 0 0.17288333333333333 0.4347479166666667 0.15884375 -0.4347479166666667h0.195140625v0.63781875h-0.129734375V17.31684375l-0.1808135416666667 0.4854197916666667h-0.09355729166666667l-0.18107708333333336 -0.4854197916666667h-0.006971875000000001v0.4854197916666667h-0.1227625v-0.63781875h0.18804895833333335ZM15.659789583333334 13.16016875c-0.7946500000000001 0 -1.1921666666666666 0.6558114583333333 -1.1921666666666666 1.9665958333333333 0 0.7508302083333334 0.10534479166666666 1.2953552083333333 0.31562708333333334 1.6346770833333335 0.19473333333333334 0.31409375 0.4997947916666667 0.47078125000000004 0.9151604166666667 0.47078125000000004 0.7946500000000001 0 1.1921666666666666 -0.6609145833333333 1.1921666666666666 -1.9821927083333335 0 -0.7403364583333334 -0.10534479166666666 -1.2801416666666667 -0.3153635416666667 -1.6196072916666668 -0.19502083333333334 -0.31339895833333337 -0.4999385416666667 -0.4702541666666667 -0.9154239583333333 -0.4702541666666667Z" stroke-width="1"></path><path fill="#00758F" d="M13.57675625 4.154902083333333c0.2636135416666667 -0.6477375 1.1853385416666666 -0.15723854166666668 1.5430604166666666 0.069071875 0.08766354166666666 0.056565625 0.18816875 0.17618958333333334 0.2886979166666667 0.22039270833333335 0.15680729166666665 0.00618125 0.31349479166666666 0.0184 0.470565625 0.02498854166666667 0.294615625 0.069215625 0.5705677083333334 0.12578125 0.8027000000000001 0.25803125 1.0789395833333333 0.635375 1.7812541666666668 1.2828489583333333 2.427673958333333 2.352277083333333 0.1380479166666667 0.22657395833333333 0.207071875 0.47169166666666673 0.319915625 0.7168333333333333 0.15654375 0.3653885416666667 0.33251770833333333 0.7489135416666667 0.5142656250000001 1.0944645833333333 0.0813625 0.163803125 0.14434895833333336 0.3459583333333333 0.25733645833333335 0.4842697916666667 0.04410729166666667 0.06325 0.169409375 0.08188958333333334 0.24432708333333336 0.11969583333333333 0.20709583333333334 0.10718958333333334 0.4579875 0.18855208333333334 0.6527208333333334 0.31438125 0.363759375 0.226765625 0.71544375 0.497015625 1.0351197916666668 0.7736625 0.11914479166666668 0.10683020833333334 0.20036354166666667 0.2580072916666667 0.313878125 0.37097083333333336v0.05702083333333333c-0.10076875 0.030906250000000003 -0.201178125 0.06257916666666667 -0.30168333333333336 0.08792708333333334 -0.21955416666666666 0.056445833333333334 -0.41402395833333333 0.043676041666666665 -0.6269895833333333 0.100121875 -0.13162708333333334 0.03814166666666667 -0.29499895833333334 0.08852604166666667 -0.43304687500000005 0.10129583333333333 0.006157291666666667 0.006205208333333333 0.012721875 0.012865625 0.012721875 0.012865625 0.08121875 0.2320125 0.5205666666666667 0.4207322916666667 0.7214812500000001 0.5594750000000001 0.24406354166666666 0.17611770833333334 0.47018229166666664 0.38977812500000003 0.65219375 0.6350395833333333 0.06284270833333333 0.062603125 0.125709375 0.11957604166666667 0.18831250000000002 0.18198750000000002 0.043676041666666665 0.06325 0.05601458333333334 0.14504375000000003 0.10024166666666667 0.20148958333333333v0.019046875c-0.04899479166666666 -0.017297916666666666 -0.08421354166666667 -0.050264583333333335 -0.11763541666666667 -0.08476458333333334l-0.019933333333333334 -0.020771875000000002c-0.01988541666666667 -0.020747916666666668 -0.04001041666666667 -0.04101666666666667 -0.06293854166666667 -0.0577875 -0.13845520833333333 -0.0945875 -0.2759520833333333 -0.20771875 -0.4144072916666667 -0.29564583333333333 -0.23805 -0.151009375 -0.5141458333333333 -0.238696875 -0.7586166666666667 -0.39028125 -0.13816770833333333 -0.088046875 -0.2699385416666667 -0.18831250000000002 -0.4016854166666667 -0.28898541666666666 -0.11940833333333334 -0.08828645833333333 -0.2508916666666667 -0.2578635416666667 -0.325953125 -0.38364479166666665 -0.044227083333333334 -0.06947916666666666 -0.050264583333333335 -0.15117708333333335 -0.10079270833333334 -0.20141770833333333 0.00905625 -0.08397395833333333 0.08598645833333333 -0.1089625 0.1635875 -0.12944687500000002l0.017896875 -0.004695833333333333c0.02676145833333333 -0.006971875000000001 0.052971875 -0.013895833333333335 0.07585208333333333 -0.023071875 0.326096875 -0.13847916666666665 0.7149166666666666 -0.18871979166666666 1.2169875 -0.17611770833333334 -0.018903125 -0.12609270833333333 -0.3326614583333334 -0.28313958333333333 -0.43278333333333335 -0.35863229166666666 -0.201034375 -0.1449 -0.41388020833333333 -0.2960770833333333 -0.6271093750000001 -0.42794375 -0.1129875 -0.069071875 -0.3077447916666667 -0.11948020833333334 -0.43292708333333335 -0.17590208333333332 -0.169409375 -0.06923958333333333 -0.5458906250000001 -0.13843125 -0.6397114583333334 -0.2702979166666667 -0.15944270833333332 -0.2078625 -0.2739875 -0.4558072916666667 -0.38520208333333333 -0.7062916666666667l-0.03028333333333334 -0.068353125c-0.010086458333333333 -0.022784375000000003 -0.020172916666666665 -0.045568750000000005 -0.03028333333333334 -0.06830520833333334 -0.13148333333333334 -0.3016114583333333 -0.2947354166666667 -0.6160645833333334 -0.4264822916666667 -0.9248875 -0.06890416666666667 -0.15065 -0.10052916666666667 -0.2828760416666667 -0.17599791666666667 -0.4273447916666667 -0.45770000000000005 -0.8866739583333333 -1.1352177083333332 -1.6290229166666668 -1.9566770833333333 -2.151122916666667 -0.2699385416666667 -0.16986458333333332 -0.5709510416666668 -0.3270791666666667 -0.9032052083333333 -0.43393333333333334 -0.18831250000000002 -0.05682916666666667 -0.41428750000000003 -0.025395833333333333 -0.6149385416666667 -0.069071875h-0.13201041666666669c-0.11272395833333333 -0.031696875 -0.20680833333333334 -0.15117708333333335 -0.2947354166666667 -0.21421145833333335 -0.19420625 -0.13181875 -0.3886760416666667 -0.22039270833333335 -0.6209520833333334 -0.314453125 -0.0813625 -0.03775833333333333 -0.31375833333333336 -0.12566145833333334 -0.3948333333333333 -0.056445833333333334 -0.050264583333333335 0.012626041666666666 -0.07573229166666667 0.03157708333333333 -0.08807083333333333 0.08198541666666667 -0.04997708333333334 0.075253125 -0.0060375 0.18852812500000002 0.02506041666666667 0.2578875 0.094228125 0.201034375 0.22585520833333333 0.320490625 0.3452635416666667 0.49035520833333335 0.10627916666666667 0.15065 0.23831354166666668 0.3205145833333334 0.31363854166666666 0.48434166666666667 0.16255729166666666 0.3520916666666667 0.23828958333333336 0.7422052083333334 0.38893958333333334 1.094296875 0.05589479166666667 0.13236979166666668 0.14420520833333333 0.2830197916666667 0.22556770833333334 0.4025 0.06890416666666667 0.09473125 0.19420625 0.16327604166666668 0.23213229166666668 0.28328333333333333 0.0756125 0.12578125 -0.11310729166666668 0.5408833333333334 -0.15680729166666665 0.6727260416666667 -0.163371875 0.5158229166666667 -0.131746875 1.2328000000000001 0.056421874999999996 1.6799583333333332 0.0033541666666666668 0.007810416666666666 0.0067083333333333335 0.015668750000000002 0.010038541666666668 0.023575000000000002l0.010038541666666668 0.0238625c0.06868854166666667 0.16375520833333335 0.142240625 0.3400885416666667 0.3249229166666667 0.38589687500000003 0.012602083333333333 -0.012482291666666668 0 -0.005917708333333334 0.024916666666666667 -0.012482291666666668 0.04425104166666667 -0.34610208333333337 0.056709375 -0.6793864583333333 0.17599791666666667 -0.9501635416666667 0.06888020833333333 -0.16928958333333335 0.20652083333333335 -0.28898541666666666 0.30089270833333337 -0.42720104166666667 0.06284270833333333 0.037638541666666664 0.06284270833333333 0.15120104166666667 0.10038541666666667 0.22631041666666668 0.08162604166666668 0.19485312500000002 0.169265625 0.4085135416666667 0.2699385416666667 0.6039416666666667 0.20652083333333335 0.4025 0.43894062500000003 0.7926854166666667 0.702290625 1.144753125 0.088190625 0.125709375 0.21337291666666666 0.26416458333333337 0.326240625 0.37743958333333333 0.050264583333333335 0.04384375 0.10654270833333333 0.06919166666666667 0.14434895833333336 0.12561354166666666h0.012314583333333334v0.018998958333333333c-0.18816875 -0.06938333333333334 -0.3074572916666667 -0.2640447916666667 -0.45755625 -0.37770312500000003 -0.282540625 -0.21363645833333336 -0.6209520833333334 -0.5344864583333334 -0.8157093750000001 -0.8423510416666666 -0.08148229166666668 -0.1767166666666667 -0.169553125 -0.34610208333333337 -0.25733645833333335 -0.52195625v-0.012721875c-0.03751875 0.050240625000000004 -0.024916666666666667 0.100121875 -0.043676041666666665 0.17611770833333334 -0.08150625 0.3142854166666667 -0.018783333333333332 0.672821875 -0.3010364583333333 0.7858333333333333 -0.31993958333333333 0.13241770833333333 -0.5586364583333334 -0.21363645833333336 -0.6587583333333333 -0.3708510416666667 -0.32005937500000003 -0.52195625 -0.40769895833333336 -1.4024489583333333 -0.18201145833333335 -2.113220833333333 0.05012083333333334 -0.15735833333333335 0.05697291666666667 -0.34605416666666666 0.14449270833333333 -0.47169166666666673 -0.018903125 -0.1135625 -0.10642291666666667 -0.1446125 -0.15709479166666665 -0.21421145833333335 -0.08778333333333334 -0.11892916666666667 -0.16296458333333336 -0.25748020833333335 -0.231725 -0.3895864583333334 -0.13201041666666669 -0.25803125 -0.225975 -0.566303125 -0.32621666666666665 -0.8429979166666668 -0.04410729166666667 -0.11301145833333334 -0.056709375 -0.22645416666666668 -0.10067291666666668 -0.33340416666666667 -0.07491770833333333 -0.1633 -0.213109375 -0.327103125 -0.31965208333333334 -0.47157187500000003 -0.14434895833333336 -0.20762291666666668 -0.5646739583333333 -0.6099791666666666 -0.395240625 -1.01904375Zm2.0573260416666668 1.2322489583333334c0.016746875 0.016794791666666666 0.03699166666666667 0.03150520833333333 0.05793125 0.04595208333333334l0.02525208333333333 0.017345833333333335c0.03366145833333334 0.02326354166666667 0.06622083333333333 0.047844791666666664 0.08622604166666667 0.08131458333333333 0.031625 0.044203125 0.037542708333333334 0.08787916666666667 0.07546875 0.13222604166666665 0 0.15120104166666667 -0.04384375 0.25170625 -0.13229791666666668 0.31433333333333335 0 0 -0.006013541666666667 0.006588541666666667 -0.012194791666666668 0.012769791666666667 -0.05012083333333334 -0.10079270833333334 -0.094084375 -0.201034375 -0.1446125 -0.3017072916666667 -0.06219583333333333 -0.08787916666666667 -0.1501229166666667 -0.15762187500000002 -0.20077083333333334 -0.2580072916666667h-0.012194791666666668v-0.012626041666666666c0.07573229166666667 -0.0186875 0.15076979166666665 -0.03160104166666666 0.2571927083333333 -0.03160104166666666Z" stroke-width="1"></path></svg>