<svg xmlns="http://www.w3.org/2000/svg" fill="none" viewBox="-0.5 -0.5 24 24" id="Postman-Icon--Streamline-Svg-Logos.svg" height="24" width="24"><desc>Postman Icon Streamline Icon: https://streamlinehq.com</desc><path fill="#FF6C37" d="M22.668320833333333 12.929809375000001C23.45640625 6.7602270833333336 19.099415625000002 1.1197669791666667 12.941069791666667 0.3316791666666667 6.782723958333334 -0.45640864583333335 1.1197669791666667 3.900584375 0.3316791666666667 10.058930208333335c-0.7880878125 6.158321875 3.5689052083333337 11.810044791666668 9.727251041666667 12.609390625 6.169582291666667 0.7880854166666668 11.810044791666668 -3.5689052083333337 12.609390625 -9.738511458333333Z" stroke-width="1"></path><path fill="#ffffff" d="M15.564147916666666 7.469489583333334 10.813114583333334 12.220522916666667l-1.33975 -1.33975C14.145598958333332 6.208538541666667 14.607204166666667 6.613841666666667 15.564147916666666 7.469489583333334Z" stroke-width="1"></path><path fill="#FF6C37" d="M10.81330625 12.333127083333334c-0.03378125 0 -0.05630208333333333 -0.011260416666666667 -0.07879895833333335 -0.03378125l-1.3510104166666668 -1.33975c-0.04504166666666667 -0.04504166666666667 -0.04504166666666667 -0.11258020833333333 0 -0.15762187500000002 4.751033333333334 -4.751033333333334 5.246395833333334 -4.3007125 6.248405208333334 -3.400022916666667 0.022520833333333334 0.022520833333333334 0.03378125 0.04501770833333334 0.03378125 0.07879895833333335 0 0.03378125 -0.011260416666666667 0.05630208333333333 -0.03378125 0.07882291666666667L10.88086875 12.299345833333334c-0.011260416666666667 0.022520833333333334 -0.04504166666666667 0.03378125 -0.0675625 0.03378125Zm-1.182128125 -1.4523302083333334 1.182128125 1.182128125L15.395481250000001 7.4807500000000005c-0.8331270833333333 -0.74304375 -1.3960520833333334 -0.968228125 -5.7643031250000005 3.400046875Z" stroke-width="1"></path><path fill="#ffffff" d="m12.175409375000001 13.582673958333334 -1.2947322916666666 -1.2947083333333333 4.751057291666667 -4.751033333333334c1.2721875 1.2834479166666668 -0.6304875000000001 3.366265625 -3.456325 6.045741666666667Z" stroke-width="1"></path><path fill="#FF6C37" d="M12.175529166666667 13.695421875000001c-0.03375729166666667 0 -0.056278125 -0.011260416666666667 -0.07879895833333335 -0.03375729166666667l-1.2947083333333333 -1.2947322916666666c-0.022520833333333334 -0.022496875 -0.022520833333333334 -0.04501770833333334 -0.022520833333333334 -0.07879895833333335 0 -0.03378125 0.011260416666666667 -0.05630208333333333 0.03378125 -0.07879895833333335l4.751033333333334 -4.751057291666667c0.04501770833333334 -0.04501770833333334 0.11258020833333333 -0.04501770833333334 0.15762187500000002 0 0.29269895833333337 0.27020208333333334 0.45032083333333334 0.652984375 0.4390604166666667 1.0470270833333333 -0.022520833333333334 1.249690625 -1.4410697916666666 2.8371218750000002 -3.895385416666667 5.156360416666668 -0.03378125 0.022496875 -0.0675625 0.03375729166666667 -0.09008333333333333 0.03375729166666667Zm-1.1370864583333333 -1.4072885416666667c0.7205229166666667 0.7317833333333333 1.0245062500000002 1.0245062500000002 1.1370864583333333 1.1370864583333333 1.8914145833333333 -1.80133125 3.7265270833333335 -3.6477041666666667 3.7377875 -4.919915625 0.011260416666666667 -0.29269895833333337 -0.10131979166666667 -0.585421875 -0.29272291666666667 -0.8105822916666667L11.038442708333335 12.288133333333334Z" stroke-width="1"></path><path fill="#ffffff" d="m9.495909375 10.914482291666667 0.9569677083333333 0.9569677083333333c0.022520833333333334 0.022520833333333334 0.022520833333333334 0.04504166666666667 0 0.06753854166666666 -0.011260416666666667 0.011260416666666667 -0.011260416666666667 0.011260416666666667 -0.022520833333333334 0.011260416666666667l-1.9814739583333334 0.42782395833333337c-0.10131979166666667 0.011260416666666667 -0.19137916666666666 -0.056278125 -0.2139 -0.15762187500000002 -0.011260416666666667 -0.056278125 0.011260416666666667 -0.11258020833333333 0.04504166666666667 -0.14636145833333333l1.148346875 -1.148346875c0.022520833333333334 -0.022520833333333334 0.056278125 -0.03378125 0.06753854166666666 -0.011260416666666667Z" stroke-width="1"></path><path fill="#FF6C37" d="M8.415148958333333 12.490653125000001c-0.16885833333333333 0 -0.29272291666666667 -0.13510104166666667 -0.29272291666666667 -0.3039833333333333 0 -0.07879895833333335 0.03378125 -0.15762187500000002 0.09008333333333333 -0.2139l1.148346875 -1.1483708333333333c0.0675625 -0.056278125 0.15762187500000002 -0.056278125 0.22516041666666667 0l0.9569677083333333 0.9569677083333333c0.0675625 0.05630208333333333 0.0675625 0.15762187500000002 0 0.22516041666666667 -0.022520833333333334 0.022520833333333334 -0.04501770833333334 0.03378125 -0.07879895833333335 0.04504166666666667l-1.9814739583333334 0.42782395833333337c-0.022520833333333334 0 -0.04504166666666667 0.011260416666666667 -0.0675625 0.011260416666666667Zm1.0470270833333333 -1.4523302083333334 -1.1033052083333335 1.1033052083333335c-0.022520833333333334 0.022520833333333334 -0.03378125 0.05630208333333333 -0.011260416666666667 0.09008333333333333 0.011260416666666667 0.03375729166666667 0.04501770833333334 0.04501770833333334 0.07879895833333335 0.03375729166666667l1.8576333333333332 -0.405303125 -0.8218666666666667 -0.8218427083333334Z" stroke-width="1"></path><path fill="#ffffff" d="M18.074957291666667 4.834983333333334c-0.7205229166666667 -0.6980260416666667 -1.8801541666666668 -0.6755052083333334 -2.5781562499999997 0.056278125 -0.6980260416666667 0.7318072916666667 -0.6755052083333334 1.8801541666666668 0.056278125 2.578180208333334 0.5967062500000001 0.5741854166666667 1.497371875 0.6755052083333334 2.2066583333333334 0.24768125000000002l-1.283471875 -1.2834479166666668 1.5986916666666666 -1.5986916666666666Z" stroke-width="1"></path><path fill="#FF6C37" d="M16.814006250000002 8.088644791666667c-1.0695479166666666 0 -1.9364322916666667 -0.8669083333333333 -1.9364322916666667 -1.93645625s0.866884375 -1.9364322916666667 1.9364322916666667 -1.9364322916666667c0.49536250000000004 0 0.9794885416666668 0.19137916666666666 1.33975 0.5404041666666667 0.022520833333333334 0.022520833333333334 0.03378125 0.04504166666666667 0.03378125 0.07879895833333335 0 0.03378125 -0.011260416666666667 0.05630208333333333 -0.03378125 0.07882291666666667l-1.5198927083333333 1.51986875 1.1933885416666665 1.1933885416666665c0.04504166666666667 0.04504166666666667 0.04504166666666667 0.11258020833333333 0 0.15762187500000002 -0.011260416666666667 0.011260416666666667 -0.011260416666666667 0.011260416666666667 -0.022496875 0.022520833333333334 -0.29272291666666667 0.18014270833333335 -0.6417479166666666 0.2814625 -0.9907489583333333 0.2814625Zm0 -3.6364677083333334c-0.9457072916666667 0 -1.711271875 0.7655645833333333 -1.7000114583333334 1.711271875 0 0.9457072916666667 0.7655645833333333 1.711271875 1.711271875 1.7000114583333334 0.2589416666666667 0 0.5178833333333334 -0.056278125 0.7543041666666667 -0.18011875000000002l-1.182128125 -1.1708677083333334c-0.022520833333333334 -0.022520833333333334 -0.03378125 -0.04504166666666667 -0.03378125 -0.07882291666666667 0 -0.03378125 0.011260416666666667 -0.056278125 0.03378125 -0.07879895833333335l1.5086322916666668 -1.5086322916666668c-0.3039833333333333 -0.2589416666666667 -0.6867656249999999 -0.3940427083333334 -1.0920687500000001 -0.3940427083333334Z" stroke-width="1"></path><path fill="#ffffff" d="m18.108498958333332 4.868692708333334 -0.022520833333333334 -0.022520833333333334 -1.6099520833333334 1.58743125 1.2722114583333335 1.2722114583333335c0.12384062500000001 -0.07882291666666667 0.24768125000000002 -0.16888229166666666 0.3490010416666667 -0.27020208333333334 0.720546875 -0.7092864583333334 0.720546875 -1.8576333333333332 0.011260416666666667 -2.566919791666667Z" stroke-width="1"></path><path fill="#FF6C37" d="M17.759641666666667 7.829607291666668c-0.03375729166666667 0 -0.056278125 -0.011260416666666667 -0.07879895833333335 -0.03378125l-1.2834479166666668 -1.2834479166666668c-0.022520833333333334 -0.022520833333333334 -0.03378125 -0.04504166666666667 -0.03378125 -0.07879895833333335 0 -0.03378125 0.011260416666666667 -0.05630208333333333 0.03378125 -0.07882291666666667l1.5986916666666666 -1.5986916666666666c0.04501770833333334 -0.04501770833333334 0.11258020833333333 -0.04501770833333334 0.1575979166666667 0l0.03378125 0.022520833333333334c0.7543041666666667 0.7543041666666667 0.754328125 1.9702135416666666 0.011260416666666667 2.7357781250000004 -0.11258020833333333 0.11260416666666666 -0.23642083333333336 0.21392395833333336 -0.371521875 0.29272291666666667 -0.03378125 0.011260416666666667 -0.05630208333333333 0.022520833333333334 -0.0675625 0.022520833333333334Zm-1.1258260416666666 -1.3960281250000002 1.1370864583333333 1.1370864583333333c0.09008333333333333 -0.05630208333333333 0.18014270833333335 -0.13510104166666667 0.24768125000000002 -0.20263958333333335 0.6417479166666666 -0.6417479166666666 0.6755052083333334 -1.6887750000000001 0.05630208333333333 -2.364280208333333l-1.4410697916666666 1.4298333333333333Z" stroke-width="1"></path><path fill="#ffffff" d="M15.755622916666669 7.672201041666667c-0.27020208333333334 -0.27020208333333334 -0.7092864583333334 -0.27020208333333334 -0.9794885416666668 0L10.531723958333334 11.916611458333334l0.7092864583333334 0.7092864583333334 4.492091666666667 -3.9404510416666665c0.29272291666666667 -0.24768125000000002 0.3152197916666667 -0.6867656249999999 0.06753854166666666 -0.9794645833333333 -0.022496875 -0.011260416666666667 -0.03375729166666667 -0.022520833333333334 -0.04501770833333334 -0.03378125Z" stroke-width="1"></path><path fill="#FF6C37" d="M11.229702083333335 12.73840625c-0.03378125 0 -0.05630208333333333 -0.011260416666666667 -0.07882291666666667 -0.03378125l-0.7092625 -0.7092864583333334c-0.04504166666666667 -0.04501770833333334 -0.04504166666666667 -0.11258020833333333 0 -0.1575979166666667l4.244410416666668 -4.244410416666668c0.3152197916666667 -0.31524375000000004 0.8218666666666667 -0.31524375000000004 1.1370864583333333 0 0.31524375000000004 0.3152197916666667 0.31524375000000004 0.8218427083333334 0 1.1370864583333333 -0.011260416666666667 0.011260416666666667 -0.022520833333333334 0.022520833333333334 -0.03375729166666667 0.03378125L11.297240625 12.704625c-0.011260416666666667 0.022520833333333334 -0.03375729166666667 0.03378125 -0.06753854166666666 0.03378125Zm-0.5404041666666667 -0.8218666666666667 0.5516645833333333 0.5516645833333333 4.4132927083333335 -3.8728885416666667c0.24768125000000002 -0.20263958333333335 0.27020208333333334 -0.5741854166666667 0.06753854166666666 -0.8218666666666667 -0.20263958333333335 -0.24768125000000002 -0.5741854166666667 -0.27020208333333334 -0.8218666666666667 -0.06753854166666666 -0.011260416666666667 0.011260416666666667 -0.022520833333333334 0.022520833333333334 -0.04501770833333334 0.03375729166666667L10.689297916666668 11.916539583333334Z" stroke-width="1"></path><path fill="#ffffff" d="M7.278014583333333 16.74644375c-0.04504166666666667 0.022520833333333334 -0.06753854166666666 0.0675625 -0.05630208333333333 0.11258020833333333l0.191403125 0.81060625c0.04504166666666667 0.11260416666666666 -0.022520833333333334 0.24770520833333334 -0.14636145833333333 0.2814625 -0.09005937500000001 0.03378125 -0.19137916666666666 0 -0.24768125000000002 -0.06753854166666666l-1.2384302083333334 -1.2271697916666666 4.0417708333333335 -4.0417708333333335 1.3960281250000002 0.022520833333333334 0.9457072916666667 0.9457072916666667c-0.22516041666666667 0.191403125 -1.58743125 1.5086322916666668 -4.886134375 3.163602083333333Z" stroke-width="1"></path><path fill="#FF6C37" d="M7.18793125 18.063601041666665c-0.09005937500000001 0 -0.18011875000000002 -0.03375729166666667 -0.23642083333333336 -0.10131979166666667l-1.2271697916666666 -1.2271697916666666c-0.022520833333333334 -0.022496875 -0.03375729166666667 -0.04501770833333334 -0.03375729166666667 -0.07879895833333335 0 -0.03378125 0.011236458333333333 -0.05630208333333333 0.03375729166666667 -0.07879895833333335l4.0417708333333335 -4.0417708333333335c0.022520833333333334 -0.022520833333333334 0.056278125 -0.03378125 0.07879895833333335 -0.03378125l1.3960520833333334 0.022520833333333334c0.03378125 0 0.056278125 0.011260416666666667 0.07879895833333335 0.03378125l0.9457072916666667 0.9457072916666667c0.022520833333333334 0.022520833333333334 0.03378125 0.056278125 0.03378125 0.09005937500000001 0 0.03378125 -0.011260416666666667 0.05630208333333333 -0.04504166666666667 0.07879895833333335l-0.07879895833333335 0.0675625c-1.1933885416666665 1.0470270833333333 -2.8146010416666667 2.0940541666666665 -4.829856250000001 3.096063541666667l0.191403125 0.7993458333333333c0.03375729166666667 0.14636145833333333 -0.03378125 0.303959375 -0.16888229166666666 0.38278229166666666 -0.0675625 0.03378125 -0.12384062500000001 0.04501770833333334 -0.18014270833333335 0.04501770833333334Zm-1.23840625 -1.4072885416666667 1.1596072916666667 1.148346875c0.03378125 0.05630208333333333 0.10131979166666667 0.07882291666666667 0.15762187500000002 0.04504166666666667 0.056278125 -0.03378125 0.07879895833333335 -0.10131979166666667 0.04501770833333334 -0.15762187500000002l-0.19137916666666666 -0.81060625c-0.022520833333333334 -0.10131979166666667 0.022520833333333334 -0.19137916666666666 0.11258020833333333 -0.23642083333333336 1.9927343750000002 -1.0019854166666666 3.6026864583333333 -2.0377760416666666 4.7848145833333335 -3.062282291666667l-0.8331270833333333 -0.8331270833333333 -1.2947083333333333 -0.022496875 -3.9404270833333332 3.9291666666666667Z" stroke-width="1"></path><path fill="#ffffff" d="m4.823651041666667 17.624516666666665 0.968228125 -0.9682041666666666 1.4410697916666666 1.4410697916666666 -2.2967177083333334 -0.15762187500000002c-0.10131979166666667 -0.011260416666666667 -0.16888229166666666 -0.10131979166666667 -0.15762187500000002 -0.20263958333333335 0 -0.04504166666666667 0.011260416666666667 -0.09008333333333333 0.04504166666666667 -0.11260416666666666Z" stroke-width="1"></path><path fill="#FF6C37" d="m7.233164583333334 18.198654166666667 -2.307978125 -0.15762187500000002c-0.16888229166666666 -0.011236458333333333 -0.2814625 -0.1575979166666667 -0.27020208333333334 -0.32648020833333335 0.011260416666666667 -0.0675625 0.03378125 -0.13510104166666667 0.09005937500000001 -0.18014270833333335l0.968228125 -0.9682041666666666c0.04504166666666667 -0.04504166666666667 0.11258020833333333 -0.04504166666666667 0.15762187500000002 0l1.4410697916666666 1.4410697916666666c0.03378125 0.03375729166666667 0.04504166666666667 0.07879895833333335 0.022520833333333334 0.12384062500000001 -0.022520833333333334 0.04501770833333334 -0.05630208333333333 0.06753854166666666 -0.10131979166666667 0.06753854166666666Zm-1.44109375 -1.3847677083333332 -0.8894052083333334 0.8894052083333334c-0.03378125 0.022520833333333334 -0.03378125 0.07879895833333335 0 0.10131979166666667 0.011260416666666667 0.011260416666666667 0.022520833333333334 0.022520833333333334 0.04504166666666667 0.022520833333333334l1.9927343750000002 0.13510104166666667 -1.1483708333333333 -1.148346875Z" stroke-width="1"></path><path fill="#FF6C37" d="M9.428490625000002 13.132377083333335c-0.06753854166666666 0 -0.11258020833333333 -0.056278125 -0.11258020833333333 -0.11258020833333333 0 -0.03378125 0.011260416666666667 -0.056278125 0.03378125 -0.07879895833333335l1.0920447916666667 -1.0920687500000001c0.04504166666666667 -0.04504166666666667 0.11260416666666666 -0.04504166666666667 0.15762187500000002 0l0.7092864583333334 0.7092864583333334c0.03378125 0.03375729166666667 0.04504166666666667 0.06753854166666666 0.03378125 0.11258020833333333 -0.011260416666666667 0.03378125 -0.04504166666666667 0.06753854166666666 -0.09008333333333333 0.07879895833333335l-1.80133125 0.38278229166666666 -0.022520833333333334 0Zm1.0920687500000001 -1.0470270833333333 -0.7430677083333334 0.7430677083333334 1.215909375 -0.2589416666666667 -0.4728416666666667 -0.48412604166666673Z" stroke-width="1"></path><path fill="#ffffff" d="m11.218561458333333 12.6370625 -1.23840625 0.27020208333333334c-0.09008333333333333 0.022520833333333334 -0.18014270833333335 -0.03378125 -0.20266354166666667 -0.12384062500000001 -0.011260416666666667 -0.05630208333333333 0 -0.11258020833333333 0.04504166666666667 -0.15762187500000002l0.6867656249999999 -0.6867656249999999 0.7092625 0.6980260416666667Z" stroke-width="1"></path><path fill="#FF6C37" d="M9.9575625 13.019796875c-0.15762187500000002 0 -0.2814625 -0.12384062500000001 -0.2814625 -0.2814625 0 -0.07879895833333335 0.03378125 -0.14636145833333333 0.07879895833333335 -0.20263958333333335l0.6867656249999999 -0.6867656249999999c0.04504166666666667 -0.04504166666666667 0.11258020833333333 -0.04504166666666667 0.15762187500000002 0l0.7092864583333334 0.7092864583333334c0.03378125 0.03375729166666667 0.04501770833333334 0.06753854166666666 0.03378125 0.11258020833333333 -0.011260416666666667 0.03378125 -0.04504166666666667 0.06753854166666666 -0.09008333333333333 0.07879895833333335l-1.23840625 0.27020208333333334 -0.05630208333333333 0Zm0.562925 -0.934446875 -0.6079666666666667 0.6079666666666667c-0.022520833333333334 0.022520833333333334 -0.022520833333333334 0.04501770833333334 -0.011260416666666667 0.06753854166666666 0.011260416666666667 0.022520833333333334 0.03378125 0.03378125 0.0675625 0.03378125l1.0357666666666667 -0.22516041666666667 -0.4841020833333333 -0.48412604166666673Z" stroke-width="1"></path><path fill="#FF6C37" d="M18.119903125 5.949692708333334c-0.022520833333333334 -0.06753854166666666 -0.10134375 -0.10131979166666667 -0.16888229166666666 -0.07879895833333335 -0.0675625 0.022520833333333334 -0.10131979166666667 0.10131979166666667 -0.07879895833333335 0.16888229166666666 0 0.011236458333333333 0.011260416666666667 0.022496875 0.011260416666666667 0.03375729166666667 0.06753854166666666 0.13510104166666667 0.04501770833333334 0.3039833333333333 -0.04504166666666667 0.42782395833333337 -0.04504166666666667 0.05630208333333333 -0.03378125 0.13510104166666667 0.011260416666666667 0.18014270833333335 0.056278125 0.04501770833333334 0.13510104166666667 0.03375729166666667 0.18011875000000002 -0.022520833333333334 0.16888229166666666 -0.21392395833333336 0.20266354166666667 -0.4841020833333333 0.09008333333333333 -0.7092864583333334Z" stroke-width="1"></path></svg>